<svg width="58" height="58" viewBox="0 0 58 58" fill="none" xmlns="http://www.w3.org/2000/svg">
<circle cx="29" cy="29" r="29" fill="#C4C4C4"/>
<g clip-path="url(#clip0_219_2)">
<path d="M29.6319 21.3673C29.673 21.321 29.8649 21.17 30.6187 21.17L33.0902 21.1691C33.8942 21.1691 34.5481 20.5163 34.5481 19.7138V15.4026C34.5481 14.6015 33.8952 13.9487 33.0925 13.9474L29.4214 13.9414C27.1556 13.9414 25.2295 14.6873 23.8512 16.0989C22.4791 17.504 21.7538 19.4655 21.7538 21.771V24.0962H18.9454C18.1414 24.0962 17.4873 24.749 17.4873 25.5515V30.1946C17.4873 30.997 18.1414 31.6498 18.9454 31.6498H21.7538V42.4862C21.7538 43.2887 22.4078 43.9415 23.2118 43.9415H28.0255C28.8295 43.9415 29.4835 43.2887 29.4835 42.4862V31.65H32.9164C33.7204 31.65 34.3742 30.997 34.3742 30.195L34.3761 25.5517C34.3761 25.0246 34.0887 24.5368 33.6259 24.2789C33.4115 24.1594 33.162 24.0962 32.9047 24.0962H29.4835V22.2592C29.4835 21.6605 29.5643 21.4437 29.6319 21.3673Z" fill="#5B5B5B"/>
</g>
<defs>
<clipPath id="clip0_219_2">
<rect width="30" height="30" fill="white" transform="translate(11 14)"/>
</clipPath>
</defs>
</svg>
