<svg width="58" height="58" viewBox="0 0 58 58" fill="none" xmlns="http://www.w3.org/2000/svg">
<circle cx="29" cy="29" r="29" fill="#C4C4C4"/>
<g clip-path="url(#clip0_219_3)">
<path d="M39.1667 14H19.8333C18.5515 14 17.3221 14.5057 16.4157 15.4059C15.5092 16.3061 15 17.527 15 18.8L15 38C15 39.273 15.5092 40.4939 16.4157 41.3941C17.3221 42.2943 18.5515 42.8 19.8333 42.8H39.1667C40.4485 42.8 41.6779 42.2943 42.5843 41.3941C43.4908 40.4939 44 39.273 44 38V18.8C44 17.527 43.4908 16.3061 42.5843 15.4059C41.6779 14.5057 40.4485 14 39.1667 14V14ZM41.5833 38C41.5833 38.6365 41.3287 39.247 40.8755 39.6971C40.4223 40.1471 39.8076 40.4 39.1667 40.4H19.8333C19.1924 40.4 18.5777 40.1471 18.1245 39.6971C17.6713 39.247 17.4167 38.6365 17.4167 38V18.8C17.4167 18.1635 17.6713 17.553 18.1245 17.1029C18.5777 16.6529 19.1924 16.4 19.8333 16.4H39.1667C39.8076 16.4 40.4223 16.6529 40.8755 17.1029C41.3287 17.553 41.5833 18.1635 41.5833 18.8V38Z" fill="#5B5B5B"/>
<path d="M29.5 21.2C28.0661 21.2 26.6644 21.6222 25.4721 22.4134C24.2799 23.2045 23.3506 24.329 22.8019 25.6446C22.2531 26.9603 22.1096 28.4079 22.3893 29.8046C22.6691 31.2013 23.3595 32.4842 24.3735 33.4911C25.3874 34.4981 26.6792 35.1838 28.0856 35.4616C29.492 35.7394 30.9497 35.5968 32.2745 35.0519C33.5992 34.5069 34.7315 33.5841 35.5282 32.4001C36.3248 31.216 36.75 29.824 36.75 28.4C36.75 26.4904 35.9862 24.659 34.6265 23.3088C33.2669 21.9585 31.4228 21.2 29.5 21.2ZM29.5 33.1999C28.5441 33.1999 27.6096 32.9184 26.8147 32.391C26.0199 31.8636 25.4004 31.1139 25.0346 30.2368C24.6688 29.3597 24.573 28.3946 24.7595 27.4635C24.946 26.5324 25.4064 25.6771 26.0823 25.0058C26.7583 24.3345 27.6195 23.8774 28.5571 23.6922C29.4946 23.507 30.4665 23.602 31.3496 23.9653C32.2328 24.3286 32.9877 24.9439 33.5188 25.7332C34.0499 26.5226 34.3333 27.4506 34.3333 28.4C34.3333 29.673 33.8241 30.8939 32.9177 31.7941C32.0113 32.6942 30.7819 33.1999 29.5 33.1999Z" fill="#5B5B5B"/>
<path d="M37.3541 22.4C38.3551 22.4 39.1666 21.5942 39.1666 20.6C39.1666 19.6059 38.3551 18.8 37.3541 18.8C36.3531 18.8 35.5416 19.6059 35.5416 20.6C35.5416 21.5942 36.3531 22.4 37.3541 22.4Z" fill="#5B5B5B"/>
</g>
<defs>
<clipPath id="clip0_219_3">
<rect width="29" height="36" fill="white" transform="translate(15 14)"/>
</clipPath>
</defs>
</svg>
